<?xml version="1.0" standalone="no"?>
<!DOCTYPE svg PUBLIC "-//W3C//DTD SVG 20010904//EN"
 "http://www.w3.org/TR/2001/REC-SVG-20010904/DTD/svg10.dtd">
<svg version="1.0" xmlns="http://www.w3.org/2000/svg"
 width="1525.000000pt" height="1525.000000pt" viewBox="0 0 1525.000000 1525.000000"
 preserveAspectRatio="xMidYMid meet">
<metadata>
Created by potrace 1.11, written by Peter Selinger 2001-2013
</metadata>
<g transform="translate(0.000000,1525.000000) scale(0.100000,-0.100000)"
fill="#000000" stroke="none">
<path d="M7220 15239 c-1593 -85 -3108 -661 -4355 -1658 -208 -166 -433 -368
-630 -566 -1258 -1257 -2030 -2894 -2199 -4660 -160 -1662 229 -3328 1105
-4742 642 -1036 1532 -1911 2584 -2540 1383 -827 3013 -1192 4630 -1037 1766
169 3403 941 4660 2199 1067 1066 1789 2411 2084 3880 423 2106 -57 4289
-1319 6010 -927 1264 -2214 2212 -3685 2715 -917 313 -1906 450 -2875 399z
m675 -1609 c601 -28 1111 -122 1660 -305 736 -245 1386 -609 1970 -1101 110
-92 128 -104 142 -92 9 7 194 167 411 356 217 188 397 341 399 338 6 -5 162
-2559 158 -2564 -4 -5 -2483 496 -2508 506 -15 6 58 74 372 347 l391 339 -32
26 c-337 269 -583 430 -913 601 -590 304 -1215 481 -1910 540 -169 14 -603 14
-775 -1 -1433 -120 -2702 -805 -3586 -1935 -112 -144 -314 -448 -402 -605
-364 -653 -572 -1341 -632 -2085 -13 -167 -13 -603 0 -770 81 -1015 454 -1960
1085 -2750 775 -970 1874 -1615 3100 -1819 309 -52 425 -60 815 -61 374 0 486
7 750 46 1316 197 2495 904 3293 1973 480 644 797 1394 927 2196 41 259 52
392 57 720 7 445 -20 740 -103 1126 -19 89 -34 166 -34 172 0 10 800 713 819
720 8 3 72 -195 115 -353 102 -379 169 -779 197 -1179 15 -221 6 -797 -15
-1001 -120 -1112 -510 -2121 -1159 -2995 -452 -608 -1041 -1148 -1682 -1542
-776 -477 -1614 -760 -2560 -863 -204 -23 -751 -31 -982 -16 -1775 119 -3370
984 -4438 2406 -478 636 -826 1368 -1020 2145 -137 548 -192 1079 -174 1670
62 1948 1069 3742 2710 4826 920 607 2000 950 3114 987 189 7 231 6 440 -3z
m-98 -2195 c435 -83 720 -499 638 -932 -83 -435 -499 -720 -932 -638 -397 75
-677 435 -650 833 26 375 309 681 687 745 58 10 183 6 257 -8z m2239 -1549
c265 -70 387 -343 263 -587 -34 -69 -111 -149 -171 -177 -24 -12 -437 -140
-918 -286 -482 -146 -887 -269 -902 -275 -44 -16 -96 -70 -114 -116 -15 -41
-15 -63 0 -337 31 -539 55 -756 111 -973 90 -354 387 -1145 768 -2050 74 -176
140 -337 147 -359 8 -24 11 -71 8 -125 -7 -159 -92 -287 -237 -359 -70 -35
-81 -37 -165 -36 -67 0 -105 6 -142 21 -73 29 -139 77 -172 126 -15 23 -214
434 -441 912 -228 479 -417 874 -421 878 -4 4 -186 -378 -404 -850 -219 -472
-413 -882 -433 -911 -107 -158 -319 -210 -495 -121 -166 84 -259 260 -228 431
7 35 68 195 147 382 491 1165 776 1961 828 2312 38 261 82 971 65 1044 -13 54
-58 113 -102 136 -17 9 -429 132 -915 274 -487 143 -904 269 -929 280 -100 49
-189 160 -219 275 -52 202 48 387 253 466 43 17 79 22 147 23 84 0 105 -5 305
-66 805 -249 1482 -413 1850 -449 171 -16 345 1 665 68 349 72 936 229 1415
378 118 37 229 71 245 75 49 13 136 11 191 -4z"/>
</g>
</svg>
